<svg width="512" height="512" viewBox="0 0 512 512" fill="none" xmlns="http://www.w3.org/2000/svg">
  <defs>
    <linearGradient id="vGradient" x1="128" y1="80" x2="384" y2="432" gradientUnits="userSpaceOnUse">
      <stop stop-color="#D7DCFF"/>
      <stop offset="0.45" stop-color="#A8B1FF"/>
      <stop offset="1" stop-color="#7F8CFF"/>
    </linearGradient>
  </defs>

  <!-- Main V -->
  <path
    d="M94 86H162C180 86 190 96 198 112L256 242L314 112C322 96 332 86 350 86H418L292 398C285 415 273 426 256 426C239 426 227 415 220 398L94 86Z"
    fill="url(#vGradient)"
  />

  <!-- Internal graph -->
  <path
    d="M178 214L226 306L256 350L292 286L334 214"
    stroke="#0F172A"
    stroke-width="16"
    stroke-linecap="round"
    stroke-linejoin="round"
  />

  <!-- Nodes -->
  <circle cx="178" cy="214" r="22" fill="#A8B1FF" stroke="#0F172A" stroke-width="12"/>
  <circle cx="334" cy="214" r="22" fill="#A8B1FF" stroke="#0F172A" stroke-width="12"/>
  <circle cx="256" cy="350" r="22" fill="#A8B1FF" stroke="#0F172A" stroke-width="12"/>
</svg>
